<svg xmlns="http://www.w3.org/2000/svg" version="1.1" xmlns:xlink="http://www.w3.org/1999/xlink" xmlns:svgjs="http://svgjs.dev/svgjs" width="100%" height="100%" viewBox="0 0 1000 600"><rect width="1000" height="600" x="0" y="0" fill="#"/><g><circle r="166.66666666666666" cx="332.52323404947913" cy="354.7454223849277" fill="#fcedda" transform="matrix(0.7536635297139574,0,0,0.7536635297139574,0,32.64133966745693)"/><path d="M340.4018218422448 429.7453691319835L340.4018218422448 429.7453691319835Q320.57398434812353 429.7453691319835 305.7359337730526 420.9475869326052Q290.94165325867516 412.1060346725335 282.58157166623107 396.5238930656744Q274.221490073787 380.89798139812183 274.221490073787 360.1072025687452L274.221490073787 360.1072025687452Q274.221490073787 344.0435902942584 279.73651772115846 329.55570020473493Q285.25154536852995 315.06781011521144 295.01226890316366 303.8626745776948Q304.8167624984907 292.6575390401781 317.24745973542326 286.2233401182447Q329.6781569723558 279.7453711356179 343.8596566370253 279.7453711356179L343.8596566370253 279.7453711356179Q390.82493176106976 279.7453711356179 390.82493176106976 325.4413144995531L390.82493176106976 325.4413144995531Q390.82493176106976 329.55570020473493 390.21215091136185 333.97647633477084Q389.55560000096045 338.35348240411327 388.94281915125254 340.8921459243319L388.94281915125254 340.8921459243319L384.8284334460706 344.6563711439664L297.8573228482362 344.6563711439664Q297.5509324233822 372.7129800484514 308.0995170504975 388.95167256571193Q318.64810167761283 405.1903650829724 337.90692838271957 407.8603387852713Q357.12198502713295 410.5303124875702 383.2527112611073 398.58108591826533L383.2527112611073 398.58108591826533L385.178593931618 399.19386676797325L388.63642872639855 408.341809452899Q382.3335399865454 412.76258558293483 373.6670679692474 417.79614256267865Q365.0005959519493 422.8296995424225 356.1590436918776 426.287534337203Q347.3612614924993 429.7453691319835 340.4018218422448 429.7453691319835ZM299.1266546083455 333.01353499951546L299.1266546083455 333.01353499951546L356.1590436918776 330.1684810544429Q360.88621024676746 329.55570020473493 362.4619324317307 327.9799780197717Q364.037654616694 326.4042558348084 364.037654616694 321.67708927991856L364.037654616694 321.67708927991856Q364.037654616694 309.0713118002123 357.2532952092132 302.46203263550524Q350.51270586242583 295.8089834101047 337.90692838271957 295.8089834101047L337.90692838271957 295.8089834101047Q323.37526823250266 295.8089834101047 312.6953734233071 305.74478718751203Q301.9717085534181 315.68059096491936 299.1266546083455 333.01353499951546Z " fill="#001933" transform="matrix(0.7536635297139574,0,0,0.7536635297139574,0,32.64133966745693)"/><path d="M630.180284162919 429.7453698797151L630.180284162919 429.7453698797151Q615.9020745007774 429.7453698797151 605.2170566741416 423.41000532763906Q594.5635580741332 417.0431215489357 588.5433857883295 405.82227686963677Q582.5232135025259 394.56991296371064 582.5232135025259 379.5982803157697L582.5232135025259 379.5982803157697Q582.5232135025259 368.0307241435711 586.4946360575586 357.59786012995335Q590.4660586125914 347.1649961163355 597.4948461504669 339.09607409976104Q604.5551529149695 331.02715208318654 613.5066132771069 326.3938257689816Q622.4580736392442 321.7289802281495 632.6703030664712 321.7289802281495L632.6703030664712 321.7289802281495Q666.4904332375042 321.7289802281495 666.4904332375042 354.63505282699236L666.4904332375042 354.63505282699236Q666.4904332375042 357.59786012995335 666.0491640647228 360.781302019305Q665.5763756653141 363.9332246820294 665.1351064925327 365.76133982640954L665.1351064925327 365.76133982640954L662.1722991895717 368.47199331635255L599.5435958812377 368.47199331635255Q599.322961294847 388.675817584416 606.9190949120128 400.3694506631236Q614.5152285291787 412.0630837418312 628.383688245166 413.9857565660931Q642.2206287345263 415.90842939035497 661.037607030991 407.30368052111726L661.037607030991 407.30368052111726L662.4244530025898 407.7449496938987L664.914471906142 414.33246805899273Q660.3757032718188 417.51590994834436 654.1348963996245 421.1406210104775Q647.8940895274302 424.76533207261053 641.5272057487268 427.25535097616284Q635.1918411966508 429.7453698797151 630.180284162919 429.7453698797151ZM600.4576534534278 360.0878790335056L600.4576534534278 360.0878790335056L641.5272057487268 358.03912930273475Q644.9312822244692 357.59786012995335 646.06597438305 356.4631679713725Q647.2006665416309 355.32847581279174 647.2006665416309 351.9243993370494L647.2006665416309 351.9243993370494Q647.2006665416309 342.8468620684031 642.315186414408 338.0874588476892Q637.4612255138125 333.2965364003481 628.383688245166 333.2965364003481L628.383688245166 333.2965364003481Q617.9193050049211 333.2965364003481 610.2286137078735 340.4514008447325Q602.5064031841987 347.60626528911695 600.4576534534278 360.0878790335056ZM725.715060070096 429.7453698797151L725.715060070096 429.7453698797151Q715.0615614700874 429.7453698797151 706.9926394535129 427.8226970554532Q698.9552366635656 425.9000242311913 694.5110257091243 423.9773514069294Q690.09833398131 422.0546785826675 690.09833398131 422.0546785826675L690.09833398131 422.0546785826675L688.9636418227293 419.78529426550597Q688.9636418227293 419.78529426550597 689.4049109955107 416.69641005603603Q689.8776993949193 413.63904507319336 690.3189685677008 408.31229577318913Q690.7917569671094 402.98554647318485 691.2330261398909 395.70460512229147Q691.6742953126723 388.4551829980253 691.6742953126723 380.2917033015691L691.6742953126723 380.2917033015691L701.8865247398994 379.15701114298827Q701.8865247398994 395.48397053590077 704.155909057061 403.9941617252567Q706.4252933742225 412.5043529146126 712.7921771529259 415.56171789745525Q719.1590609316291 418.6506021069252 731.3885208629998 418.6506021069252L731.3885208629998 418.6506021069252Q745.477615165378 418.6506021069252 754.2084409411246 411.93700683532217Q762.9392667168712 405.25493079034646 762.9392667168712 393.6873746181478L762.9392667168712 393.6873746181478Q762.9392667168712 386.18579868086374 757.9592289097667 380.7329724743505Q752.9476718760349 375.28014626783727 745.1309036724783 370.7413776335141Q737.3141354689218 366.20260899919094 728.4572327866662 361.66384036486784L728.4572327866662 361.66384036486784Q719.3796955180198 356.9044371441539 710.869504328664 351.4516109376407Q702.359313139308 346.0303039577547 696.9064869327948 338.8754395133703Q691.4536607262816 331.7205750689859 691.4536607262816 321.9496148145402L691.4536607262816 321.9496148145402Q691.4536607262816 309.9407894695602 698.3878905842753 300.39046380150523Q705.2906012156417 290.8716573600775 717.1103112008583 285.3242734736825Q728.8985019594476 279.74537036066033 743.6495000209978 279.74537036066033L743.6495000209978 279.74537036066033Q753.861729448225 279.74537036066033 761.7100168784087 281.10069710563187Q769.5267850819653 282.4875430772306 773.9394768097794 283.9374275020838Q778.3836877642209 285.41883115356427 778.3836877642209 285.41883115356427L778.3836877642209 285.41883115356427L779.045591523393 286.7741578985358Q779.045591523393 286.7741578985358 778.0369762713211 292.0063495186583Q777.0283610192494 297.2385411387808 775.8936688606685 305.9693669145274Q774.7589767020878 314.7001926902741 774.0655537162885 325.1330567038919L774.0655537162885 325.1330567038919L765.2086510340329 326.04711427608197L763.8533242890613 324.91242211750114Q763.8533242890613 324.91242211750114 764.200035781961 321.63442254826776Q764.5467472748606 318.3249037524071 764.5467472748606 313.12423135891186L764.5467472748606 313.12423135891186Q764.5467472748606 301.0838867873046 758.7472095754478 296.54511815298144Q752.9476718760349 292.0063495186583 737.5347700553125 292.0063495186583L737.5347700553125 292.0063495186583Q725.0531563109238 292.0063495186583 716.9842342943493 298.24715639085264Q708.946831504402 304.48796326304694 708.946831504402 313.78613511808396L708.946831504402 313.78613511808396Q708.946831504402 320.59428806956873 713.2334463257073 325.92103736957296Q717.5515803736397 331.27930589620445 724.5803679115152 335.5659207175097Q731.6406746760179 339.8840547654421 739.804154372474 344.20218881337456L739.804154372474 344.20218881337456Q749.7957492133104 349.1822266204791 759.4406325612471 354.85568741338307Q769.0855159091839 360.529148206287 775.4208804612599 367.8100895571804Q781.7877642399633 375.05951168144657 781.7877642399633 385.49237569506437L781.7877642399633 385.49237569506437Q781.7877642399633 398.4467778388617 774.6328997955789 408.4383726796981Q767.4780353511944 418.3984482939072 754.901863926924 424.07190908681116Q742.2941732760263 429.7453698797151 725.715060070096 429.7453698797151ZM843.0611408033258 429.7453698797151L843.0611408033258 429.7453698797151Q827.6167197559762 429.7453698797151 821.2813552039001 423.5045630075208Q814.9144714251968 417.26375613532645 814.9144714251968 402.2921234873855L814.9144714251968 402.2921234873855L814.9144714251968 346.47157313053617Q814.9144714251968 340.3568431648508 812.2038179352538 337.83530503467125Q809.4616452186837 335.345286131119 801.9915885080267 335.12465154472824L801.9915885080267 335.12465154472824L801.0775309358366 333.76932479975676L802.2122230944175 326.96117184827204Q807.6650493009306 324.2189991317018 812.7711640145442 320.7203649760777Q817.8772787281578 317.19021159382635 821.8487012831905 313.912212024593Q825.8201238382233 310.60269322873233 828.0895081553848 308.45938581807974Q830.3588924725465 306.31607840742714 830.3588924725465 306.31607840742714L830.3588924725465 306.31607840742714L834.8976611068696 308.11267432518Q834.8976611068696 308.11267432518 834.3303150275791 312.4308083731125Q833.7629689482887 316.74894242104494 833.0695459624894 325.1330567038919L833.0695459624894 325.1330567038919L866.4168877341136 324.47115294471973L867.1103107199131 325.1330567038919L865.0615609891422 337.17340127549915L832.1554883902994 336.4799782896998Q831.4935846311272 347.1649961163355 831.0207962317186 361.4432057784771Q830.5795270589372 375.75293466724594 830.5795270589372 393.21458621873916L830.5795270589372 393.21458621873916Q830.5795270589372 404.7821423909378 834.5509496139699 409.57306483827887Q838.5223721690027 414.33246805899273 848.2618131968211 414.33246805899273L848.2618131968211 414.33246805899273Q853.935273989725 414.33246805899273 858.8207541169478 412.2837183282219Q863.7062342441707 410.23496859745103 863.7062342441707 410.23496859745103L863.7062342441707 410.23496859745103L865.9756185613322 416.12906397674567Q865.9756185613322 416.12906397674567 863.2649650713893 418.1778137075165Q860.522792354819 420.22656343828737 856.5513697997864 422.9372169282304Q852.5799472447535 425.6793896448006 848.8291592761115 427.72813937557146Q845.1098905340967 429.7453698797151 843.0611408033258 429.7453698797151ZM923.403649476171 429.7453698797151L923.403649476171 429.7453698797151Q910.4492473323737 429.7453698797151 900.4576524915373 423.41000532763906Q890.4975768773282 417.0431215489357 884.9186737643059 405.6016422832461Q879.371289877911 394.12864379092923 879.371289877911 379.37764572937897L879.371289877911 379.37764572937897Q879.371289877911 363.0506863364665 886.2740005092775 350.0017265127875Q893.2082303672711 336.95276668910844 905.2485749388785 329.32511384531534Q917.2574002838585 321.7289802281495 932.0083983454086 321.7289802281495L932.0083983454086 321.7289802281495Q944.962800489206 321.7289802281495 954.9228761034152 328.0958640068528Q964.9144709442515 334.43122855892886 970.4933740572739 345.77815014473674Q976.0407579436687 357.1250717305446 976.0407579436687 372.12822360511285L976.0407579436687 372.12822360511285Q976.0407579436687 388.2345484116346 969.106528085675 401.3780659151954Q962.2038174543085 414.55310264538343 950.2895497892104 422.14923626254927Q938.375282124112 429.7453698797151 923.403649476171 429.7453698797151ZM929.7390140282472 418.6506021069252L929.7390140282472 418.6506021069252Q942.4412623590265 418.6506021069252 949.9428382963106 408.31229577318913Q957.4444142335948 397.973989439453 957.4444142335948 380.2917033015691L957.4444142335948 380.2917033015691Q957.4444142335948 366.6753973985996 953.346914772053 356.2425333849818Q949.2494153105112 345.77815014473674 941.999993186245 339.8840547654421Q934.750571061979 333.98995938614746 925.200245393924 333.98995938614746L925.200245393924 333.98995938614746Q912.4979970631447 333.98995938614746 904.9964211258605 344.42282339976526Q897.5263644152036 354.85568741338307 897.5263644152036 372.790127364285L897.5263644152036 372.790127364285Q897.5263644152036 386.40643326725444 901.5923446501181 396.7447396009905Q905.6898441116599 407.05152670809935 912.9392662359261 412.85106440751224Q920.2202075868194 418.6506021069252 929.7390140282472 418.6506021069252ZM996.4652167981229 427.94877396196216L997.5999089567038 418.87123669331584Q1004.4080619081884 418.1778137075165 1006.6774462253501 414.4270257388745Q1008.9468305425115 410.70775699685964 1008.9468305425115 400.0227391702239L1008.9468305425115 400.0227391702239L1008.9468305425115 350.0962841926692Q1008.9468305425115 342.6262274820124 1006.8980808117407 339.4427855926607Q1004.8493310809698 336.259343703309 1000.3105624466467 336.259343703309L1000.3105624466467 336.259343703309Q998.5139665288938 336.259343703309 997.0325628774133 336.60605519620873Q995.5511592259328 336.95276668910844 995.5511592259328 336.95276668910844L995.5511592259328 336.95276668910844L994.4164670673521 335.345286131119L995.1098900531514 328.3164985932435Q1002.1386775910269 326.96117184827204 1009.1674651289023 325.3536912902826Q1016.1962526667778 323.77772995892036 1020.9871751141188 322.6430378003396Q1025.7465783348327 321.5083456417588 1025.7465783348327 321.5083456417588L1025.7465783348327 321.5083456417588L1027.322539666195 322.8636723867303Q1027.322539666195 322.8636723867303 1026.7551935869046 326.4883834488634Q1026.1878475076142 330.1446137376237 1025.7465783348327 335.47136303762795Q1025.2737899354242 340.7981123376322 1025.2737899354242 346.2509385441454L1025.2737899354242 346.2509385441454L1026.1878475076142 346.9128423033176Q1033.2166350454895 336.259343703309 1042.2941723141357 329.4511907518243Q1051.3717095827824 322.6430378003396 1058.1798625342667 322.6430378003396L1058.1798625342667 322.6430378003396Q1062.0567274094178 322.6430378003396 1063.63268874078 323.084306973121Q1065.2401692987696 323.55709537252966 1065.2401692987696 323.55709537252966L1065.2401692987696 323.55709537252966L1065.9020730579418 324.47115294471973Q1065.9020730579418 324.47115294471973 1065.4608038851602 327.5285179275624Q1064.9880154857515 330.5858829104051 1064.3261117265797 335.47136303762795Q1063.63268874078 340.3568431648508 1063.06534266149 346.0303039577547Q1062.4979965821994 351.70376475065865 1062.2773619958089 356.9044371441539L1062.2773619958089 356.9044371441539L1053.4204593135532 357.59786012995335Q1053.4204593135532 348.2996882749163 1052.2857671549723 345.2108040654464Q1051.1510749963916 342.1534390826037 1047.3057293478678 342.1534390826037L1047.3057293478678 342.1534390826037Q1042.2941723141357 342.1534390826037 1036.620711521232 346.2509385441454Q1030.947250728328 350.3169187790599 1026.1878475076142 357.59786012995335L1026.1878475076142 357.59786012995335Q1026.1878475076142 357.59786012995335 1025.9672129212236 361.7899172713768Q1025.7465783348327 365.98197441280024 1025.525943748442 372.34885819150355Q1025.2737899354242 378.68422274357965 1025.0531553490332 385.3978180151826Q1024.8325207626426 392.0798940601584 1024.611886176252 397.18600877377196Q1024.3912515898612 402.2921234873855 1024.3912515898612 403.89960404537493L1024.3912515898612 403.89960404537493Q1024.3912515898612 411.59029534242245 1026.6606359070229 414.33246805899273Q1028.9300202241843 417.0431215489357 1035.2653847762604 417.0431215489357L1035.2653847762604 417.0431215489357Q1037.7554036798128 417.0431215489357 1041.5061916484547 416.822486962545Q1045.256979617097 416.6018523761543 1045.256979617097 416.6018523761543L1045.256979617097 416.6018523761543L1045.4776142034875 417.51590994834436L1043.4288644727167 427.47598556255355Q1043.4288644727167 427.47598556255355 1041.1594801555552 427.3814278826718Q1038.8900958383933 427.25535097616284 1035.2653847762604 427.25535097616284Q1031.6406737141274 427.25535097616284 1027.6692511590945 427.1607932962811Q1023.6978286040618 427.03471638977214 1020.2937521283194 427.03471638977214L1020.2937521283194 427.03471638977214Q1013.7062337632254 427.03471638977214 1008.2534075567122 427.25535097616284Q1002.8321005768263 427.47598556255355 999.6486586874746 427.72813937557146Q996.4652167981229 427.94877396196216 996.4652167981229 427.94877396196216L996.4652167981229 427.94877396196216ZM1124.685430717752 429.7453698797151L1124.685430717752 429.7453698797151Q1110.3757018289832 429.7453698797151 1099.7222032289746 423.41000532763906Q1089.0687046289663 417.0431215489357 1083.0485323431626 405.82227686963677Q1077.028360057359 394.56991296371064 1077.028360057359 379.5982803157697L1077.028360057359 379.5982803157697Q1077.028360057359 368.0307241435711 1080.9997826123918 357.59786012995335Q1084.9712051674246 347.1649961163355 1091.9999927053 339.09607409976104Q1099.0287802431753 331.02715208318654 1108.0117598319398 326.3938257689816Q1116.9632201940772 321.7289802281495 1127.1754496213043 321.7289802281495L1127.1754496213043 321.7289802281495Q1160.9955797923371 321.7289802281495 1160.9955797923371 354.63505282699236L1160.9955797923371 354.63505282699236Q1160.9955797923371 357.59786012995335 1160.5543106195557 360.781302019305Q1160.0815222201472 363.9332246820294 1159.6402530473656 365.76133982640954L1159.6402530473656 365.76133982640954L1156.6774457444048 368.47199331635255L1094.0487424360708 368.47199331635255Q1093.82810784968 388.675817584416 1101.4242414668458 400.3694506631236Q1109.0203750840117 412.0630837418312 1122.857315573372 413.9857565660931Q1136.7257752893593 415.90842939035497 1155.542753585824 407.30368052111726L1155.542753585824 407.30368052111726L1156.8980803307954 407.7449496938987L1159.419618460975 414.33246805899273Q1154.880849826652 417.51590994834436 1148.6400429544574 421.1406210104775Q1142.399236082263 424.76533207261053 1136.03235230356 427.25535097616284Q1129.6654685248566 429.7453698797151 1124.685430717752 429.7453698797151ZM1094.9628000082607 360.0878790335056L1094.9628000082607 360.0878790335056L1136.03235230356 358.03912930273475Q1139.4364287793023 357.59786012995335 1140.571120937883 356.4631679713725Q1141.7058130964638 355.32847581279174 1141.7058130964638 351.9243993370494L1141.7058130964638 351.9243993370494Q1141.7058130964638 342.8468620684031 1136.820332969241 338.0874588476892Q1131.9348528420182 333.2965364003481 1122.857315573372 333.2965364003481L1122.857315573372 333.2965364003481Q1112.424451559754 333.2965364003481 1104.7022410360792 340.4514008447325Q1097.0115497390316 347.60626528911695 1094.9628000082607 360.0878790335056Z " fill="#fcedda" transform="matrix(0.7536635297139574,0,0,0.7536635297139574,0,32.64133966745693)"/></g></svg>